<svg t="1654478815151" class="icon" viewBox="0 0 1163 1024" version="1.1" xmlns="http://www.w3.org/2000/svg" p-id="23433" width="32" height="32"><path d="M1120.581818 387.490909L237.381818 944.872727c-8.145455 5.818182-18.618182 4.654545-23.272727-4.654545l-178.036364-279.272727c-4.654545-8.145455-2.327273-18.618182 5.818182-23.272728l883.2-558.545454c8.145455-4.654545 18.618182-2.327273 23.272727 5.818182l178.036364 279.272727c4.654545 9.309091 2.327273 19.781818-5.818182 23.272727m34.909091-40.727273l-175.709091-279.272727c-16.290909-24.436364-47.709091-31.418182-72.145454-16.290909l-883.2 558.545455C0 626.036364-6.981818 657.454545 8.145455 681.890909l175.70909 279.272727c16.290909 24.436364 47.709091 31.418182 72.145455 16.290909l883.2-558.545454c25.6-16.290909 31.418182-47.709091 16.290909-72.145455M373.527273 245.527273L359.563636 209.454545l-37.236363-8.145454 29.090909-22.109091-4.654546-37.236364 33.745455 19.781819 34.909091-16.29091-8.145455 37.236364 24.436364 29.090909-37.236364 2.327273zM585.309091 105.890909l37.236364 4.654546-26.763637 26.763636 8.145455 37.236364-33.745455-16.29091-32.581818 18.618182 3.490909-37.236363L512 115.2l37.236364-6.981818 15.127272-34.909091zM897.163636 644.654545l31.418182 22.109091 37.236364-11.636363-12.8 34.909091 23.272727 31.418181-37.236364-2.327272-26.763636 32.581818-10.472727-37.236364-37.236364-11.636363 30.254546-20.945455 2.327272-37.236364zM790.109091 783.127273l13.963636 34.909091 37.236364 8.145454-29.090909 25.6 4.654545 37.236364-33.745454-20.945455-34.909091 13.963637 8.145454-37.236364-24.436363-29.090909 37.236363-1.163636zM595.781818 954.181818l-18.618182-32.581818-37.236363-4.654545 26.763636-26.763637-8.145454-37.236363 34.90909 17.454545 32.581819-18.618182-3.490909 37.236364 29.090909 24.436363-37.236364 5.818182zM269.963636 381.672727l-30.254545-23.272727-37.236364 10.472727 11.636364-34.909091-19.781818-31.418181 37.236363 2.327272 22.109091-30.254545 10.472728 37.236363 34.90909 11.636364-29.090909 20.945455v37.236363z" fill="#BF482C" p-id="23434"></path><path d="M104.727273 522.472727l-34.909091 23.272728c-4.654545-50.036364 0-97.745455 10.472727-146.618182 13.963636-64 40.727273-124.509091 79.127273-178.036364 38.4-57.018182 88.436364-104.727273 146.618182-141.963636 58.181818-37.236364 122.181818-61.672727 188.509091-72.145455 64-10.472727 130.327273-8.145455 194.327272 5.818182 47.709091 10.472727 95.418182 29.090909 136.145455 51.2l-34.909091 23.272727c-144.290909-72.145455-322.327273-69.818182-467.781818 23.272728C179.2 201.309091 102.4 360.727273 104.727273 522.472727M1054.254545 498.036364l34.909091-23.272728c4.654545 50.036364 0 97.745455-10.472727 146.618182-13.963636 64-40.727273 124.509091-79.127273 178.036364-39.563636 55.854545-89.6 103.563636-146.618181 140.8-58.181818 37.236364-122.181818 61.672727-188.509091 72.145454-65.163636 10.472727-130.327273 8.145455-194.327273-5.818181-47.709091-10.472727-95.418182-29.090909-136.145455-51.2l34.909091-23.272728c144.290909 72.145455 322.327273 69.818182 467.781818-23.272727C979.781818 818.036364 1058.909091 658.618182 1054.254545 498.036364" fill="#BF482C" p-id="23435"></path><path d="M431.709091 275.781818c-41.890909 26.763636-72.145455 60.509091-95.418182 101.236364l-53.527273 32.581818c23.272727-68.654545 68.654545-125.672727 128-162.909091 61.672727-39.563636 132.654545-55.854545 204.8-45.381818l-53.527272 32.581818c-45.381818 2.327273-88.436364 15.127273-130.327273 41.890909M727.272727 743.563636c41.890909-24.436364 72.145455-60.509091 95.418182-98.909091l53.527273-34.90909c-23.272727 68.654545-68.654545 125.672727-128 162.90909-61.672727 39.563636-132.654545 55.854545-204.8 45.381819l53.527273-32.581819c45.381818-2.327273 91.927273-15.127273 130.327272-41.890909M381.672727 692.363636l31.418182 31.418182-37.236364 23.272727-33.745454-30.254545 39.563636-24.436364z m-34.909091-54.690909l-23.272727-38.4 22.109091-13.963636 23.272727 38.4-22.109091 13.963636z m-66.327272 41.890909l-16.290909-43.054545 22.10909-13.963636 16.29091 43.054545-22.109091 13.963636z m-1.163637-79.127272l-1.163636-2.327273-9.309091-2.327273 40.727273-25.6 3.490909 8.145455 25.6-16.290909 8.145454 17.454545-26.763636 16.290909 20.945455 45.381818-33.745455 20.945455-20.945455-45.381818-25.6 16.290909-6.981818-16.290909 25.6-16.290909z m-25.6 96.581818L232.727273 657.454545l22.109091-13.963636 20.945454 38.4-22.109091 15.127273z m15.127273 66.327273l1.163636 51.2-37.236363 23.272727-1.163637-51.2 37.236364-23.272727z m16.290909 40.727272l12.8-27.927272-12.8-29.09091-72.145454 45.381819-9.309091-19.781819L384 658.618182l9.309091 19.781818-65.163636 40.727273 13.963636 30.254545c2.327273 4.654545 1.163636 9.309091-1.163636 13.963637-2.327273 5.818182-6.981818 10.472727-12.8 13.963636l-43.054546 26.763636zM360.727273 640l9.309091 20.945455-158.254546 98.90909-9.309091-20.945454L360.727273 640z m-173.381818 98.909091l-13.963637-43.054546 22.109091-13.963636 13.963636 44.218182-22.10909 12.8z m8.145454-62.836364l-25.6 16.290909-8.145454-17.454545 25.6-16.290909-1.163637-2.327273-9.309091-2.327273 40.727273-25.6 3.490909 8.145455 25.6-16.290909 8.145455 17.454545-25.6 16.290909 20.945454 45.381819-33.745454 20.945454-20.945455-44.218182zM443.345455 671.418182l-45.381819-98.909091-11.636363-4.654546 48.872727-30.254545 48.872727 108.218182 24.436364-16.290909-60.509091-134.981818-11.636364-3.49091 48.872728-30.254545 19.781818 45.381818 50.036363-31.418182 10.472728 22.109091-50.036364 31.418182 33.745455 75.636364 58.181818-36.072728 10.472727 22.109091-181.527273 115.2-10.472727-23.272727zM735.418182 429.381818l13.963636-9.309091-3.490909-9.309091-13.963636 9.309091 3.490909 9.309091z m-16.290909-36.072727l4.654545 9.309091 13.963637-9.309091-3.49091-9.309091-15.127272 9.309091z m-26.763637 64l15.127273-9.309091-4.654545-9.309091-15.127273 9.309091 4.654545 9.309091zM679.563636 430.545455l15.127273-9.309091-4.654545-9.309091-15.127273 9.309091 4.654545 9.309091z m9.309091-43.054546l9.309091-5.818182 6.981818-24.436363-69.818181 44.218181-10.472728-22.10909 107.054546-67.49091 11.636363 26.763637-5.818181 17.454545 13.963636-9.309091 33.745454 75.636364c2.327273 4.654545 2.327273 9.309091 1.163637 13.963636-1.163636 4.654545-4.654545 8.145455-8.145455 11.636364L756.363636 463.127273l5.818182-17.454546-3.490909-6.981818-13.963636 9.309091 8.145454 17.454545-29.090909 18.618182-9.309091-18.618182-15.127272 9.309091 8.145454 17.454546-29.090909 18.618182-40.727273-91.927273 13.963637-8.145455-10.472728-8.145454 37.236364-23.272727 10.472727 8.145454z m-53.527272 192l-2.327273-27.927273-36.072727-81.454545-8.145455 4.654545-10.472727-22.109091 45.381818-29.090909 41.890909 94.254546 34.909091-9.309091 101.236364-64 10.472727 22.109091-116.363637 73.309091-23.272727 6.981818v8.145454l-37.236363 24.436364z m-39.563637-182.690909l24.436364 19.781818-32.581818 20.945455-24.436364-19.781818 32.581818-20.945455zM957.672727 235.054545l10.472728 23.272728-30.254546 18.618182 33.745455 74.472727c2.327273 4.654545 2.327273 9.309091 1.163636 13.963636-1.163636 4.654545-4.654545 8.145455-8.145455 10.472727l-43.054545 26.763637 6.981818-32.581818-30.254545-68.654546-38.4 24.436364-10.472728-23.272727 108.218182-67.49091z m-29.090909-47.70909l10.472727 23.272727-96.581818 60.509091-10.472727-23.272728 96.581818-60.50909z m-89.6 131.490909l47.709091 107.054545-39.563636 24.436364-44.218182-98.909091-15.127273 13.963636-11.636363-26.763636 51.2-46.545455 11.636363 26.763637z m-16.290909-36.072728l-51.2 46.545455-11.636364-26.763636 51.2-46.545455 11.636364 26.763636z" fill="#BF482C" p-id="23436"></path></svg>