<svg t="1654478681125" class="icon" viewBox="0 0 1024 1024" version="1.1" xmlns="http://www.w3.org/2000/svg" p-id="12473" width="32" height="32"><path d="M417.69638 590.865004A222.116862 222.116862 0 0 1 426.874175 611.852984c8.822066 24.616411 7.11457 33.118321-17.074967 48.450219-28.10255 18.213298-55.422497 34.149934-85.125825 49.801987-25.363441 13.482109-36.817898 11.454457-51.82964-14.229139l-54.035155-92.489405 21.343708-11.347738 13.553255 23.193497L348.61391 559.311888l-24.22511-41.477941-120.520809 70.185229-11.774612-20.418815 140.797332-82.137706 47.59647 81.604114-115.576183 67.339401 25.47016 43.647884c8.857639 15.11846 13.090808 16.078927 28.956298 7.61259a733.83228 733.83228 0 0 0 72.355172-42.224971c15.36747-10.280553 16.292364-13.197527 10.671855-27.640103a203.369972 203.369972 0 0 0-9.142222-19.707358zM429.826721 484.680053a244.670048 244.670048 0 0 0-45.639964-25.327868l8.964358-18.924755a382.265824 382.265824 0 0 1 45.284236 23.406934z m202.445078 19.458348l7.114569 20.667824c-29.063017 19.351629-57.414577 36.675606-88.078371 53.359272-25.327868 13.980129-41.157785 17.964288-65.70305 8.003891a253.171959 253.171959 0 0 1-7.648162 36.106441l-21.770583-8.395193a287.891058 287.891058 0 0 0 9.818106-39.628152l-29.703328-50.904746-18.284444 10.671855-11.347739-19.493921 36.355451-21.343709 40.979921 70.185229c21.343709 11.276593 33.118321 8.893212 57.450149-4.517751 31.446398-16.897103 61.363163-35.145974 90.817481-54.71104z m-105.366776 52.505523l-17.501841 10.24498L450.565692 466.004308l38.525394-22.48204-32.620302-2.596818 1.209477-10.173835-19.102619 11.134302-9.391232-16.1145 104.228444-60.82957 9.177795 15.758771c-6.225248 8.324046-18.426735 32.584729-26.181616 46.885014l38.525394-22.375321 48.521365 83.169318c8.146182 13.944556 6.901132 19.956368-7.897172 30.699368l-8.075037 6.047384-16.327937-14.478149 7.683735-5.798374c6.403113-4.802334 7.11457-7.11457 3.201557-13.446537l-1.600779-2.774682-26.750781 15.61648 14.798304 25.363441-17.110539 9.99597-14.798305-25.399013-25.541305 14.940596zM470.628778 423.31689l25.61245 1.422914c5.584937-9.853679 11.383311-19.814076 15.509762-25.399013z m6.829987 48.734802l7.577016 12.984089 25.576878-14.905023-7.577017-12.984089z m49.801987 26.395053l-7.11457-12.414924-25.576877 14.940596 7.114569 12.379351z m19.74293-66.876954l-26.715208 15.580907 7.541443 12.98409 26.750782-15.580908z m24.118391 41.300076l-7.114569-12.414924-26.857501 15.474189 7.11457 12.379351zM629.639408 314.677413a333.531022 333.531022 0 0 1-21.343709 79.291878l-20.383242-9.782534a330.542903 330.542903 0 0 0 19.067047-74.382825z m28.458278 48.450218a234.247204 234.247204 0 0 1-3.841867 33.616342L707.899673 488.557493l-19.280483 11.24102-41.620232-71.359133a301.40874 301.40874 0 0 1-8.928785 29.418745l-18.782464-9.604668a377.712499 377.712499 0 0 0 16.932676-88.398528z m81.817551-90.888626L651.623428 323.712916l-10.99201-18.853609 88.078371-51.402766z m43.256583 52.007504L753.681929 341.49934l37.529354 64.031126c11.098729 19.067046 6.580977 29.3476-13.161953 42.972l-14.72716 10.458418-17.786423-16.61252 16.185645-11.561176c9.071076-6.61655 10.920864-9.782533 5.407073-19.209338l-34.078788-58.410616-59.58452 34.754672-10.885292-18.675745L771.9308 305.570764zM347.190996 139.2677L326.701035 128.062252l-0.99604 23.549226-18.49788 15.296324 22.517612 8.217328 9.248941 21.343709 15.296324-18.462308 23.513653-2.027652-13.126381-19.35163 6.189675-22.517612z m134.180782-31.766554l-15.296325-17.430695-8.217328 20.48996-22.517612 9.213368 18.462308 15.296325 1.031612 22.517612 20.489961-11.24102 23.513652 5.051345-6.189675-22.517613 13.268672-19.458348-24.545265-1.920934zM229.444869 232.468561l-23.549225-0.99604 8.2529 21.343709-9.24894 21.343709 23.513652-2.027652 17.466269 15.296324 6.189675-22.517613 20.489961-12.272632-19.458348-12.272633-5.086917-23.513652-18.569027 15.296324z" fill="#29d945" p-id="12474"></path><path d="M512 998.316404c-268.148128 0-486.316404-218.061558-486.316404-486.316404a486.316404 486.316404 0 1 1 486.316404 486.316404m0-998.316404a512 512 0 1 0 512 512A512.24901 512.24901 0 0 0 512 0" fill="#29d945" p-id="12475"></path><path d="M510.968387 951.253526a440.285139 440.285139 0 1 1 440.285139-440.285139 440.818731 440.818731 0 0 1-440.285139 440.285139m0-887.755992a447.506427 447.506427 0 1 0 447.648719 447.470853c0-246.733273-200.879872-447.470854-447.648719-447.470853" fill="#29d945" p-id="12476"></path><path d="M514.134371 166.445355c-166.943375 0-310.230807 123.971375-334.776072 289.776419l25.541305 4.055305C227.417217 306.709095 359.463628 192.093379 514.134371 192.093379a317.309803 317.309803 0 0 1 163.812965 46.244702l13.268672-21.521573a338.368929 338.368929 0 0 0-177.081637-50.08657m320.404641 358.040714a312.614187 312.614187 0 0 1-499.620649 232.361843l-15.296325 20.48996a335.202946 335.202946 0 0 0 202.765234 67.588411 338.724658 338.724658 0 0 0 337.942055-319.479747l-25.648024-0.889321z" fill="#29d945" p-id="12477"></path></svg>